:SAMPLES-PER-SECOND 30
:FULLY-SPECIFIED
:DEGREES
172
root  -4.94616 34.6437 -31.3222 -168.159 38.341 -175.755
RightUpLeg  -15.1354 2.03625 0.798649
RightLeg  0.835129 14.2301 -0.696826
RightFoot  14.8155 -0.436574 3.81256
RightToes  -36.9626 -0.194685 -0.297329
Spine  -1.80037 -0.374795 0.383855
Spine1  -3.43678 -0.425069 1.56382
HEad  -63.9482 -15.3593 14.6163
LeftShoulder1  -1.94126e-019 -3.10601e-018 -2.51263e-017
LeftArm  5.42215 18.2752 -76.3542
LeftForeArm  132.565 -77.0355 -129.799
LeftHand  -0.247802 1.64024 7.52556
RightShoulder  -4.96962e-017 0 -2.36833e-017
RightArm  -15.7359 -33.1302 72.6825
RightForeArm  50.4393 71.6324 28.862
RightHand  -0.0363177 -5.04156 -4.37927
LeftUpLeg  -6.28692 23.1605 7.48208
LeftLeg  15.2796 26.2096 5.17726
LeftFoot  0.558213 -0.00157223 0.484418
LeftToes  -20.921 2.25955e-006 -3.67304e-008
173
root  -4.87279 34.6317 -31.2944 -168.316 39.9551 -175.564
RightUpLeg  -14.9802 2.7107 0.980691
RightLeg  0.805599 15.1551 -0.748566
RightFoot  14.9428 -0.481012 4.11633
RightToes  -38.7677 -0.208715 -0.308056
Spine  -2.04916 -0.42002 0.359819
Spine1  -3.84779 -0.395758 1.55193
HEad  -62.8777 -17.0396 13.8356
LeftShoulder1  -1.94126e-019 -3.10601e-018 -2.51263e-017
LeftArm  7.96087 8.33683 -77.2066
LeftForeArm  149.001 -71.8921 -147.099
LeftHand  -0.321263 0.987968 8.43546
RightShoulder  -4.96962e-017 0 -2.36833e-017
RightArm  -14.4233 -32.3944 72.2937
RightForeArm  50.8935 71.5663 28.6419
RightHand  -0.0347083 -5.1071 -4.45104
LeftUpLeg  -5.77536 21.8234 7.45958
LeftLeg  15.8543 27.3223 5.65225
LeftFoot  -1.24903 -0.00655264 -0.439565
LeftToes  -18.3272 2.25955e-006 -3.67304e-008
174
root  -4.8033 34.616 -31.2795 -168.519 41.5581 -175.391
RightUpLeg  -14.7392 3.53512 1.11141
RightLeg  0.738862 15.8895 -0.80203
RightFoot  15.0385 -0.517263 4.36238
RightToes  -40.4698 -0.222247 -0.317761
Spine  -2.31732 -0.684823 0.343073
Spine1  -4.33078 -0.844987 1.55061
HEad  -61.2322 -20.6321 12.4375
LeftShoulder1  -1.94126e-019 -3.10601e-018 -2.51263e-017
LeftArm  9.74257 -2.57728 -78.3881
LeftForeArm  157.072 -68.3143 -153.685
LeftHand  -0.431609 0.143334 9.60836
RightShoulder  -4.96962e-017 0 -2.36833e-017
RightArm  -12.8137 -31.3419 72.2313
RightForeArm  51.4328 71.4219 28.2416
RightHand  -0.0380425 -5.01275 -4.52393
LeftUpLeg  -5.38616 20.2913 7.34254
LeftLeg  16.5407 26.8169 5.87774
LeftFoot  -3.3468 -0.0487726 -1.50775
LeftToes  -16.1388 2.25955e-006 -3.67304e-008
175
root  -4.75206 34.5912 -31.266 -168.539 43.1944 -175.181
RightUpLeg  -14.6533 4.59063 1.19298
RightLeg  0.657583 16.3624 -0.848077
RightFoot  15.1826 -0.547253 4.54652
RightToes  -42.9033 -0.242081 -0.330928
Spine  -2.5578 -1.19074 0.303993
Spine1  -4.80546 -1.82629 1.50272
HEad  -59.2118 -25.0451 9.33634
LeftShoulder1  -1.94126e-019 -3.10601e-018 -2.51263e-017
LeftArm  10.8687 -13.0015 -79.2807
LeftForeArm  162.314 -66.7715 -156.124
LeftHand  -0.59987 -0.815917 11.3482
RightShoulder  -4.96962e-017 0 -2.36833e-017
RightArm  -10.8873 -30.0087 72.4783
RightForeArm  52.1472 71.3965 28.069
RightHand  -0.0466886 -4.74975 -4.45159
LeftUpLeg  -5.38296 17.8586 7.00712
LeftLeg  17.1457 24.0643 5.57348
LeftFoot  -5.20116 -0.105531 -2.16155
LeftToes  -14.0387 2.25955e-006 -3.67304e-008
176
root  -4.73705 34.5545 -31.2498 -168.412 44.9181 -174.859
RightUpLeg  -14.7314 5.49867 1.33982
RightLeg  0.653238 17.0848 -0.885462
RightFoot  15.2162 -0.578168 4.76409
RightToes  -44.4086 -0.254624 -0.338648
Spine  -2.68641 -1.89125 0.396567
Spine1  -5.08233 -3.23048 1.7273
HEad  -58.5366 -28.5558 5.71513
LeftShoulder1  -1.94126e-019 -3.10601e-018 -2.51263e-017
LeftArm  10.9356 -21.8586 -79.7329
LeftForeArm  164.792 -66.9056 -156.27
LeftHand  -0.742696 -1.7663 12.218
RightShoulder  -4.96962e-017 0 -2.36833e-017
RightArm  -8.67003 -28.3274 72.646
RightForeArm  53.853 71.7524 28.5314
RightHand  -0.0575977 -4.44646 -4.55369
LeftUpLeg  -5.58574 14.3962 6.49228
LeftLeg  17.9225 21.3484 5.27621
LeftFoot  -6.78834 -0.158742 -2.51448
LeftToes  -12.2502 2.25955e-006 -3.67304e-008
177
root  -4.74161 34.5169 -31.2441 -168.251 46.9668 -174.31
RightUpLeg  -14.7082 6.48467 1.59208
RightLeg  0.659179 18.0668 -0.932501
RightFoot  15.2869 -0.621691 5.06188
RightToes  -46.0586 -0.2686 -0.346727
Spine  -2.64026 -2.34029 0.479458
Spine1  -5.02952 -4.17377 1.90022
HEad  -58.7873 -31.5173 2.8302
LeftShoulder1  -1.94126e-019 -3.10601e-018 -2.51263e-017
LeftArm  11.4304 -28.9728 -80.8112
LeftForeArm  164.655 -69.0046 -153.774
LeftHand  -0.915651 -2.45811 13.7283
RightShoulder  -4.96962e-017 0 -2.36833e-017
RightArm  -7.25331 -27.0395 72.9365
RightForeArm  55.7882 72.2964 29.3969
RightHand  -0.0744723 -3.96867 -4.59259
LeftUpLeg  -5.41769 10.5643 5.91505
LeftLeg  18.6704 20.6826 5.39941
LeftFoot  -8.41392 -0.237924 -3.0721
LeftToes  -9.62275 2.25955e-006 -3.67304e-008
178
root  -4.75409 34.4757 -31.2442 -167.964 49.6656 -173.54
RightUpLeg  -14.6936 7.41484 1.97759
RightLeg  0.684385 19.7146 -1.00513
RightFoot  15.4065 -0.697916 5.57812
RightToes  -48.1614 -0.286738 -0.356434
Spine  -2.51169 -2.57823 0.58255
Spine1  -4.79624 -4.68385 2.09482
HEad  -59.162 -32.8568 0.728489
LeftShoulder1  -1.94126e-019 -3.10601e-018 -2.51263e-017
LeftArm  11.6186 -33.8201 -81.9927
LeftForeArm  160.424 -72.1305 -148.428
LeftHand  -0.966239 -2.65557 14.128
RightShoulder  -4.96962e-017 0 -2.36833e-017
RightArm  -5.98092 -25.8455 73.2446
RightForeArm  56.9874 72.6697 30.0592
RightHand  -0.0825218 -3.79384 -4.74464
LeftUpLeg  -4.93108 8.22673 5.39576
LeftLeg  19.3858 20.9981 5.75056
LeftFoot  -9.79975 -0.330565 -3.69296
LeftToes  -6.99063 2.25955e-006 -3.67304e-008
179
root  -4.78445 34.4275 -31.2364 -167.459 52.7038 -172.599
RightUpLeg  -14.7592 8.41802 2.40446
RightLeg  0.673943 21.6421 -1.10191
RightFoot  15.5719 -0.795043 6.21949
RightToes  -50.4019 -0.306442 -0.366038
Spine  -2.42931 -2.58266 0.664379
Spine1  -4.62752 -4.69795 2.2504
HEad  -59.3096 -32.9856 -0.588913
LeftShoulder1  -1.94126e-019 -3.10601e-018 -2.51263e-017
LeftArm  12.0109 -36.779 -83.7079
LeftForeArm  145.884 -76.9085 -133.473
LeftHand  -1.06254 -2.88326 15.0906
RightShoulder  -4.96962e-017 0 -2.36833e-017
RightArm  -4.9383 -24.9647 73.4702
RightForeArm  57.0389 72.7177 30.1751
RightHand  -0.0838356 -3.75712 -4.74387
LeftUpLeg  -4.43754 7.98512 5.07375
LeftLeg  20.0961 22.0431 6.30629
LeftFoot  -10.5472 -0.406018 -4.23507
LeftToes  -4.31928 2.25955e-006 -3.67304e-008
180
root  -4.84286 34.3791 -31.2278 -166.848 55.5886 -171.641
RightUpLeg  -14.8122 9.3138 2.76436
RightLeg  0.483315 23.4892 -1.26617
RightFoot  15.8063 -0.90366 6.90067
RightToes  -52.6648 -0.326708 -0.374948
Spine  -2.42518 -2.58509 0.697801
Spine1  -4.59472 -4.67228 2.32371
HEad  -58.9371 -31.8202 -1.50484
LeftShoulder1  -1.94126e-019 -3.10601e-018 -2.51263e-017
LeftArm  12.2684 -38.3494 -85.6114
LeftForeArm  108.554 -80.515 -93.3449
LeftHand  -1.09558 -2.77447 15.7468
RightShoulder  -4.96962e-017 0 -2.36833e-017
RightArm  -3.96284 -24.2291 73.723
RightForeArm  56.2875 72.3199 29.3736
RightHand  -0.0885952 -3.58092 -4.46564
LeftUpLeg  -4.0453 9.77233 5.06022
LeftLeg  20.7685 23.1669 6.89246
LeftFoot  -10.0096 -0.387382 -4.25974
LeftToes  -4.8977 2.25955e-006 -3.67304e-008
181
root  -4.94001 34.3368 -31.2285 -166.375 57.9615 -170.883
RightUpLeg  -14.8255 9.93102 2.956
RightLeg  0.181268 25.0691 -1.47359
RightFoot  16.1263 -1.01908 7.57155
RightToes  -55.1785 -0.349613 -0.383898
Spine  -2.4377 -2.61281 0.66034
Spine1  -4.58669 -4.67763 2.25945
HEad  -58.9239 -30.2171 -1.55009
LeftShoulder1  -1.94126e-019 -3.10601e-018 -2.51263e-017
LeftArm  12.9491 -39.6949 -87.8847
LeftForeArm  59.8702 -75.9438 -40.8953
LeftHand  -1.04111 -2.40528 15.6637
RightShoulder  -4.96962e-017 0 -2.36833e-017
RightArm  -3.30977 -23.8246 73.9454
RightForeArm  55.8227 71.8253 28.3485
RightHand  -0.0966279 -3.06245 -3.72964
LeftUpLeg  -3.84647 12.2888 5.12385
LeftLeg  21.4123 23.0743 7.1396
LeftFoot  -9.74868 -0.366297 -4.13169
LeftToes  -5.5927 2.25955e-006 -3.67304e-008
182
root  -5.07443 34.2982 -31.2341 -165.97 59.794 -170.26
RightUpLeg  -14.9033 10.645 2.97993
RightLeg  -0.0739891 26.0836 -1.64123
RightFoot  16.4238 -1.11093 8.06691
RightToes  -57.0183 -0.366615 -0.389808
Spine  -2.45033 -2.68353 0.614507
Spine1  -4.58955 -4.77722 2.1827
HEad  -59.2598 -28.5702 -1.06833
LeftShoulder1  -1.94126e-019 -3.10601e-018 -2.51263e-017
LeftArm  14.1794 -41.3101 -90.4417
LeftForeArm  40.2733 -64.5676 -19.975
LeftHand  -0.93013 -2.1994 14.3959
RightShoulder  -4.96962e-017 0 -2.36833e-017
RightArm  -3.00526 -23.8597 74.0209
RightForeArm  56.1322 71.5202 27.6417
RightHand  -0.095113 -2.86296 -3.75634
LeftUpLeg  -3.84366 14.1824 5.09953
LeftLeg  22.1188 22.9734 7.41051
LeftFoot  -9.76812 -0.366941 -4.13064
LeftToes  -6.15401 2.25955e-006 -3.67304e-008
183
root  -5.2269 34.2704 -31.2519 -165.666 61.1223 -169.777
RightUpLeg  -15.0149 11.3033 2.90759
RightLeg  -0.227644 26.6817 -1.74506
RightFoot  16.6703 -1.17716 8.39792
RightToes  -57.7604 -0.373525 -0.392161
Spine  -2.40557 -2.87783 0.582616
Spine1  -4.50949 -5.1617 2.13227
HEad  -60.6251 -27.1269 0.45452
LeftShoulder1  -1.94126e-019 -3.10601e-018 -2.51263e-017
LeftArm  15.124 -42.5048 -92.5232
LeftForeArm  28.875 -53.6219 -13.012
LeftHand  -0.522734 -0.0698228 11.1933
RightShoulder  -4.96962e-017 0 -2.36833e-017
RightArm  -2.76607 -24.1184 73.8534
RightForeArm  56.8248 71.5586 27.5919
RightHand  -0.0928879 -2.85455 -3.64082
LeftUpLeg  -3.92806 15.3181 4.96251
LeftLeg  22.7458 23.1295 7.72739
LeftFoot  -9.90577 -0.381685 -4.24066
LeftToes  -6.39116 2.25955e-006 -3.67304e-008
184
root  -5.38149 34.2508 -31.2654 -165.445 62.3396 -169.51
RightUpLeg  -15.2945 12.3438 2.66127
RightLeg  -0.212424 26.7284 -1.74099
RightFoot  16.8704 -1.20808 8.50893
RightToes  -57.5995 -0.375979 -0.3937
Spine  -2.31671 -3.12332 0.545463
Spine1  -4.35348 -5.66579 2.0646
HEad  -63.0021 -25.6308 2.80303
LeftShoulder1  -1.94126e-019 -3.10601e-018 -2.51263e-017
LeftArm  14.2109 -41.7394 -92.6522
LeftForeArm  22.0265 -48.4228 -11.098
LeftHand  -0.35857 0.697754 8.87215
RightShoulder  -4.96962e-017 0 -2.36833e-017
RightArm  -2.35309 -24.4845 73.4296
RightForeArm  58.5536 72.1987 28.6495
RightHand  -0.0852516 -2.77195 -3.19413
LeftUpLeg  -4.06254 16.2521 4.67426
LeftLeg  23.1517 23.3553 7.97491
LeftFoot  -10.1031 -0.402677 -4.39143
LeftToes  -6.02646 2.25955e-006 -3.67304e-008
185
root  -5.54283 34.2382 -31.2948 -165.285 63.5516 -169.499
RightUpLeg  -15.8143 13.2098 2.25506
RightLeg  -0.0663388 26.975 -1.68918
RightFoot  17.039 -1.24605 8.67821
RightToes  -57.5371 -0.377365 -0.394526
Spine  -2.23886 -3.2572 0.421646
Spine1  -4.2178 -5.95011 1.81691
HEad  -66.002 -24.2886 5.59162
LeftShoulder1  -1.94126e-019 -3.10601e-018 -2.51263e-017
LeftArm  13.9168 -39.0082 -90.9779
LeftForeArm  23.6543 -50.8908 -12.074
LeftHand  -0.438537 0.857874 11.2308
RightShoulder  -4.96962e-017 0 -2.36833e-017
RightArm  -2.36073 -25.3181 72.9751
RightForeArm  61.0832 73.2563 30.7054
RightHand  -0.0713272 -2.59326 -2.4317
LeftUpLeg  -4.21831 17.0251 4.16358
LeftLeg  23.2255 23.7463 8.13192
LeftFoot  -10.2447 -0.422312 -4.54695
LeftToes  -5.48287 2.25955e-006 -3.67304e-008
186
root  -5.69689 34.2212 -31.3336 -165.093 64.3071 -169.419
RightUpLeg  -16.2458 13.6533 1.96273
RightLeg  0.0405262 27.2057 -1.65335
RightFoot  17.1773 -1.27952 8.82949
RightToes  -57.4564 -0.377809 -0.394738
Spine  -2.0521 -3.25641 0.268992
Spine1  -3.86122 -5.97318 1.48679
HEad  -69.6351 -23.5924 8.80253
LeftShoulder1  -1.94126e-019 -3.10601e-018 -2.51263e-017
LeftArm  13.4038 -36.4074 -90.3231
LeftForeArm  27.3717 -57.2485 -15.2852
LeftHand  -0.47272 0.215879 10.6618
RightShoulder  -4.96962e-017 0 -2.36833e-017
RightArm  -3.36535 -26.5837 72.6315
RightForeArm  63.7592 74.41 33.4225
RightHand  -0.0629548 -2.51095 -2.0327
LeftUpLeg  -4.46903 17.5955 3.78815
LeftLeg  23.389 23.9081 8.25653
LeftFoot  -10.4975 -0.44752 -4.70698
LeftToes  -5.00169 2.25955e-006 -3.67304e-008
